<svg xmlns="http://www.w3.org/2000/svg" width="42.571" height="42.571" viewBox="0 0 42.571 42.571">
  <path id="path79" d="M64.978,100.429H107.55V143H64.978Z" transform="translate(-64.978 -100.429)" fill="#f1f1f1"/>
  <path id="path81" d="M80.853,113.526a5.886,5.886,0,0,1,1.005-1.3l-3.281-3.6a11.528,11.528,0,0,0-2.09,2.7Z" transform="translate(-64.978 -100.429)" fill="#56c22b"/>
  <path id="path83" d="M88.9,110.986a7.985,7.985,0,0,1,1.376.847l3.281-3.572a12.258,12.258,0,0,0-2.91-1.826Z" transform="translate(-64.978 -100.429)" fill="#dda63a"/>
  <path id="path85" d="M96.411,112.071l-4.339,2.17a5.992,5.992,0,0,1,.423,1.535l4.842-.45a11.859,11.859,0,0,0-.926-3.254" transform="translate(-64.978 -100.429)" fill="#c5192d"/>
  <path id="path87" d="M91.728,113.605l4.339-2.17a10.66,10.66,0,0,0-2.037-2.7l-3.281,3.572a5.763,5.763,0,0,1,.979,1.3" transform="translate(-64.978 -100.429)" fill="#4c9f38"/>
  <path id="path89" d="M80.007,116.7v-.291l-4.842-.423a6.447,6.447,0,0,0-.026.714,11.414,11.414,0,0,0,.317,2.7l4.683-1.349a7.772,7.772,0,0,1-.132-1.349" transform="translate(-64.978 -100.429)" fill="#3f7e44"/>
  <path id="path91" d="M91.119,120.67a5.939,5.939,0,0,1-1.191,1.111l2.566,4.128a11.061,11.061,0,0,0,2.514-2.328Z" transform="translate(-64.978 -100.429)" fill="#fcc30b"/>
  <path id="path93" d="M92.548,116.7a7.234,7.234,0,0,1-.132,1.323l4.683,1.349a11.034,11.034,0,0,0,.317-2.672,5.98,5.98,0,0,0-.026-.688l-4.842.45v.238" transform="translate(-64.978 -100.429)" fill="#ff3a21"/>
  <path id="path95" d="M81.515,120.749l-3.863,2.937a10.831,10.831,0,0,0,2.514,2.275l2.566-4.128a4.778,4.778,0,0,1-1.217-1.085" transform="translate(-64.978 -100.429)" fill="#fd9d24"/>
  <path id="path97" d="M80.086,115.7a5.339,5.339,0,0,1,.476-1.561l-4.339-2.17a10.663,10.663,0,0,0-.952,3.281Z" transform="translate(-64.978 -100.429)" fill="#0a97d9"/>
  <path id="path99" d="M91.913,126.279l-2.54-4.128a6.029,6.029,0,0,1-1.482.609l.9,4.789a10.766,10.766,0,0,0,3.122-1.27" transform="translate(-64.978 -100.429)" fill="#a21942"/>
  <path id="path101" d="M92.23,118.712a5.319,5.319,0,0,1-.688,1.4l3.889,2.937a10.883,10.883,0,0,0,1.482-2.99Z" transform="translate(-64.978 -100.429)" fill="#26bde2"/>
  <path id="path103" d="M87.177,122.892a5.135,5.135,0,0,1-.9.053,6.986,6.986,0,0,1-.741-.053l-.9,4.789a11.123,11.123,0,0,0,1.64.132,10.11,10.11,0,0,0,1.8-.159Z" transform="translate(-64.978 -100.429)" fill="#fd6925"/>
  <path id="path105" d="M86.674,110.43a6.254,6.254,0,0,1,1.561.291l1.746-4.524a11.287,11.287,0,0,0-3.307-.635Z" transform="translate(-64.978 -100.429)" fill="#e5243b"/>
  <path id="path107" d="M84.848,122.813a5.941,5.941,0,0,1-1.535-.582l-2.566,4.128a11.137,11.137,0,0,0,3.2,1.217Z" transform="translate(-64.978 -100.429)" fill="#dd1367"/>
  <path id="path109" d="M84.4,110.695a6.242,6.242,0,0,1,1.588-.291v-4.868a10.638,10.638,0,0,0-3.334.609Z" transform="translate(-64.978 -100.429)" fill="#19486a"/>
  <path id="path111" d="M81.065,120.193a5.975,5.975,0,0,1-.741-1.482l-4.683,1.349a11.277,11.277,0,0,0,1.535,3.1Z" transform="translate(-64.978 -100.429)" fill="#bf8b2e"/>
  <path id="path113" d="M82.388,111.78a7.071,7.071,0,0,1,1.349-.82l-1.746-4.524a11.183,11.183,0,0,0-2.857,1.746Z" transform="translate(-64.978 -100.429)" fill="#00689d"/>
  <path id="path115" d="M69.106,131.174h2.011v.609h-.635v3.889h-.767v-3.889h-.635Zm3.784,2.514h-.741v1.984h-.767v-4.5h.767v1.9h.741v-1.9h.767v4.5h-.767Zm1.164-2.514h1.8v.609H74.794v1.3h.741v.609h-.741v1.376h1.058v.609h-1.8Zm3.916,2.09h1.085v2.408H78.5v-.5a.691.691,0,0,1-.714.556c-.661,0-.952-.529-.952-1.217v-2.17a1.067,1.067,0,0,1,1.138-1.217c.847,0,1.085.476,1.085,1.138v.4h-.688v-.45c0-.291-.106-.45-.37-.45s-.4.185-.4.476v2.408c0,.265.106.476.37.476.238,0,.37-.132.37-.423V133.9h-.37Zm1.482-2.09h.767v3.889h.9v.609H79.451Zm1.8,3.334v-2.17a1.14,1.14,0,1,1,2.275,0v2.17a1.14,1.14,0,1,1-2.275,0Zm1.535.106v-2.408c0-.265-.132-.476-.4-.476s-.4.185-.4.476v2.408c0,.265.132.476.4.476C82.679,135.09,82.785,134.9,82.785,134.614Zm1.138-3.44h1.085c.767,0,1.005.344,1.005.979v.45a.656.656,0,0,1-.45.714.678.678,0,0,1,.556.741v.609c0,.635-.291.979-1.032.979H83.922Zm.741,1.879h.265a.335.335,0,0,0,.37-.37v-.556a.324.324,0,0,0-.37-.37h-.265Zm0,.582v1.4h.344a.324.324,0,0,0,.37-.37v-.688a.324.324,0,0,0-.37-.37h-.344Zm1.614,2.037.847-4.5H88l.847,4.5h-.767l-.132-.82H87.15l-.132.82Zm.952-1.429h.609l-.291-1.8Zm1.879-3.069h.767v3.889h.9v.609H89.108Zm3.7,2.09H93.9v2.408h-.556v-.5a.691.691,0,0,1-.714.556c-.661,0-.952-.529-.952-1.217v-2.17a1.067,1.067,0,0,1,1.138-1.217c.847,0,1.085.476,1.085,1.138v.4h-.688v-.45c0-.291-.106-.45-.37-.45s-.4.185-.4.476v2.408c0,.265.106.476.37.476.238,0,.37-.132.37-.423V133.9h-.37Zm1.455,1.244v-2.17a1.14,1.14,0,1,1,2.275,0v2.17a1.14,1.14,0,1,1-2.275,0Zm1.535.106v-2.408c0-.265-.132-.476-.4-.476s-.4.185-.4.476v2.408c0,.265.132.476.4.476C95.7,135.09,95.8,134.9,95.8,134.614Zm.9,1.058.847-4.5h.873l.847,4.5H98.5l-.132-.82h-.794l-.132.82Zm.952-1.429h.609l-.291-1.8Zm1.879-3.069h.767v3.889h.9v.609H99.533Zm1.826,3.519v-.609h.714v.609c0,.265.106.4.37.4.238,0,.344-.159.344-.4v-.185a.782.782,0,0,0-.344-.635l-.45-.45a1.547,1.547,0,0,1-.635-1.191v-.159a.928.928,0,0,1,1.058-.979c.767,0,1.058.37,1.058,1.032v.37h-.688v-.4c0-.265-.132-.4-.37-.4a.347.347,0,0,0-.37.37v.106c0,.265.132.4.37.609l.476.476a1.467,1.467,0,0,1,.609,1.164v.212a.989.989,0,0,1-1.111,1.058.9.9,0,0,1-1.032-1.005Zm-30.665,3.069h-.9v1.005h-.185v-2.09H70.8v.185H69.794v.741h.9Zm.794,1.032c-.476,0-.582-.291-.582-.714s.106-.714.582-.714.582.291.582.714S71.963,138.794,71.487,138.794Zm0-1.27c-.37,0-.4.238-.4.556s.026.556.4.556.4-.238.4-.556S71.831,137.524,71.487,137.524Zm1.667.027a.335.335,0,0,0-.159-.027.81.81,0,0,0-.4.079v1.164h-.185v-1.4h.106l.053.106a.693.693,0,0,1,.45-.132.335.335,0,0,1,.159.027v.185Zm.9-.318c0,.291.185.318.5.37.423.053.661.159.661.556,0,.291-.159.635-.767.635a1.9,1.9,0,0,1-.582-.106V138.5a1.416,1.416,0,0,0,.582.106c.423,0,.556-.212.556-.45,0-.291-.132-.344-.476-.4-.5-.053-.688-.185-.688-.529,0-.238.106-.582.714-.582a1.369,1.369,0,0,1,.556.106v.185a1.3,1.3,0,0,0-.556-.106c-.423,0-.5.185-.5.4Zm1.614,1.164c0,.185.106.238.291.238a.7.7,0,0,0,.37-.079v-1.164h.185v1.4h-.106l-.053-.106a.622.622,0,0,1-.423.132c-.344,0-.476-.159-.476-.423v-1.005h.185Zm1.693-.423c.4.027.5.159.5.4,0,.212-.132.423-.556.423a1.1,1.1,0,0,1-.423-.079v-.159a1.358,1.358,0,0,0,.423.053c.291,0,.37-.132.37-.265s-.026-.212-.317-.238c-.4-.027-.476-.185-.476-.37s.132-.423.529-.423a.967.967,0,0,1,.4.079v.159a1.432,1.432,0,0,0-.4-.053c-.265,0-.344.106-.344.238-.026.159.026.212.291.238Zm1.535.82h-.132c-.238,0-.45-.106-.45-.37v-.9h-.291v-.079l.291-.079v-.37l.185-.053v.45h.423v.159H78.5v.873c0,.159.079.238.265.238h.106Zm.82-1.27a.928.928,0,0,0-.423.079v-.159a1.2,1.2,0,0,1,.423-.079c.423,0,.529.185.529.476v.952h-.106l-.053-.106a.878.878,0,0,1-.423.132c-.37,0-.476-.212-.476-.45s.132-.423.5-.423l.37-.027v-.079c-.026-.238-.106-.318-.344-.318Zm-.053.529c-.185.027-.291.132-.291.291,0,.132.026.265.291.265a.861.861,0,0,0,.37-.106v-.476Zm1.058-1.244a.132.132,0,1,1-.132.132A.142.142,0,0,1,80.721,136.81Zm-.079,1.693v-1.111h.185v1.138c0,.106.026.132.106.132v.159c-.185-.027-.291-.106-.291-.318Zm1.482-.741c0-.185-.106-.238-.291-.238a.7.7,0,0,0-.37.079v1.164h-.185v-1.4h.106l.053.106a.622.622,0,0,1,.423-.132c.344,0,.476.159.476.423v1.005H82.15v-1.005Zm1.032-.238a.928.928,0,0,0-.423.079v-.159a1.2,1.2,0,0,1,.423-.079c.423,0,.529.185.529.476v.952h-.106l-.053-.106a.878.878,0,0,1-.423.132c-.37,0-.476-.212-.476-.45s.132-.423.5-.423l.37-.027v-.079c-.026-.238-.079-.318-.344-.318Zm-.053.529c-.185.027-.291.132-.291.291,0,.132.026.265.291.265a.861.861,0,0,0,.37-.106v-.476Zm2.09.027c0,.4-.132.714-.582.714a.8.8,0,0,1-.423-.132l-.053.106h-.106v-2.09h.185v.794a.746.746,0,0,1,.4-.106C85.06,137.339,85.192,137.683,85.192,138.08Zm-.952-.476v.926a.81.81,0,0,0,.4.079c.344,0,.37-.265.37-.556s-.053-.556-.37-.556a1.212,1.212,0,0,0-.4.106Zm1.323.9v-1.826h.185V138.5c0,.106.026.132.106.132v.159a.254.254,0,0,1-.291-.291Zm1.191-1.164c.476,0,.529.318.529.714v.079h-.926c0,.238.079.476.4.476a1.054,1.054,0,0,0,.45-.079v.159a.955.955,0,0,1-.45.079c-.476,0-.582-.318-.582-.714s.106-.714.582-.714Zm-.4.661h.714c0-.238-.026-.476-.344-.476-.291,0-.344.238-.37.476Zm1.852.767v-2.09h.582c.688,0,.873.45.873,1.058,0,.582-.185,1.058-.873,1.058Zm.185-.185h.4c.5,0,.661-.37.661-.873s-.159-.873-.661-.873h-.4Zm2.09-1.244c.476,0,.529.318.529.714v.079h-.926c0,.238.079.476.4.476a1.054,1.054,0,0,0,.45-.079v.159a.955.955,0,0,1-.45.079c-.476,0-.582-.318-.582-.714s.106-.714.582-.714Zm-.4.661H90.8c0-.238-.026-.476-.344-.476s-.37.238-.37.476Zm1.323-.635.4,1.138.4-1.138h.212l-.556,1.429h-.132l-.556-1.429Zm1.746-.027c.476,0,.529.318.529.714v.079h-.926c0,.238.079.476.4.476a1.054,1.054,0,0,0,.45-.079v.159a.955.955,0,0,1-.45.079c-.476,0-.582-.318-.582-.714s.106-.714.582-.714Zm-.4.661h.714c0-.238-.026-.476-.344-.476s-.37.238-.37.476Zm1.3.5v-1.826h.185V138.5c0,.106.026.132.106.132v.159a.254.254,0,0,1-.291-.291Zm1.191.291c-.476,0-.582-.291-.582-.714s.106-.714.582-.714.582.291.582.714S95.723,138.794,95.247,138.794Zm0-1.27c-.37,0-.4.238-.4.556s.026.556.4.556.4-.238.4-.556S95.59,137.524,95.247,137.524Zm1.111,1.164v.794h-.185v-2.09h.106l.053.106a.878.878,0,0,1,.423-.132c.45,0,.582.318.582.714s-.132.714-.582.714A.689.689,0,0,1,96.358,138.688Zm.767-.609c0-.265-.053-.556-.37-.556a.81.81,0,0,0-.4.079v.926a.81.81,0,0,0,.4.079c.317.027.37-.265.37-.529Zm2.17-.318c0-.185-.106-.238-.265-.238a.7.7,0,0,0-.37.079c0,.053.026.079.026.132v1.005H98.5v-.979c0-.185-.106-.238-.265-.238a.769.769,0,0,0-.37.079v1.164h-.185v-1.4h.106l.053.106a.644.644,0,0,1,.4-.132.464.464,0,0,1,.4.159.7.7,0,0,1,.423-.159c.291,0,.45.132.45.423v1.005h-.185Zm1.111-.423c.476,0,.529.318.529.714v.079h-.926c0,.238.079.476.4.476a1.054,1.054,0,0,0,.45-.079v.159a.955.955,0,0,1-.45.079c-.476,0-.582-.318-.582-.714s.106-.714.582-.714Zm-.4.661h.714c0-.238-.026-.476-.344-.476s-.37.238-.37.476Zm2.09-.238c0-.185-.106-.238-.291-.238a.7.7,0,0,0-.37.079v1.164h-.185v-1.4h.106l.053.106a.622.622,0,0,1,.423-.132c.344,0,.476.159.476.423v1.005h-.185v-1.005Zm1.27,1.032h-.132c-.238,0-.45-.106-.45-.37v-.9H102.5v-.079l.291-.079v-.37l.185-.053v.45h.423v.159h-.423v.873c0,.159.079.238.265.238h.106Z" transform="translate(-64.978 -100.429)"/>
</svg>
